<?xml version="1.0" encoding="UTF-8"?>
<svg width="24px" height="24px" viewBox="0 0 24 24" version="1.1" xmlns="http://www.w3.org/2000/svg" xmlns:xlink="http://www.w3.org/1999/xlink">
    <title>2-menu-PC/首页</title>
    <g id="2-menu-PC/首页" stroke="none" stroke-width="1" fill="none" fill-rule="evenodd">
        <rect id="矩形" fill-opacity="0" fill="#FFFFFF" x="0" y="0" width="24" height="24"></rect>
        <path d="M12.8515941,3.40075015 L19.3515941,6.45957368 C20.0525789,6.78944891 20.5,7.49448698 20.5,8.26921109 L20.5,18 C20.5,19.1045695 19.6045695,20 18.5,20 L5.5,20 C4.3954305,20 3.5,19.1045695 3.5,18 L3.5,8.26921109 C3.5,7.49448698 3.94742107,6.78944891 4.64840593,6.45957368 L11.1484059,3.40075015 C11.6877666,3.14693336 12.3122334,3.14693336 12.8515941,3.40075015 Z M12.2128985,4.75797821 C12.1050264,4.70721485 11.9835373,4.69706217 11.8702183,4.72752019 L11.7871015,4.75797821 L5.28710148,7.81680173 C5.13689044,7.88748928 5.03325234,8.02708429 5.00670699,8.18749421 L5,8.26921109 L5,18 C5,18.2454599 5.17687516,18.4496084 5.41012437,18.4919443 L5.5,18.5 L18.5,18.5 C18.7454599,18.5 18.9496084,18.3231248 18.9919443,18.0898756 L19,18 L19,8.26921109 C19,8.10319878 18.9178206,7.94998594 18.7839817,7.85766515 L18.7128985,7.81680173 L12.2128985,4.75797821 Z" id="矩形备份-15" fill="#606266" fill-rule="nonzero"></path>
        <rect id="矩形" fill="#606266" transform="translate(12.000000, 15.750000) rotate(-90.000000) translate(-12.000000, -15.750000) " x="11.25" y="11.75" width="1.5" height="8" rx="0.25"></rect>
    </g>
</svg>