<?xml version="1.0" encoding="UTF-8"?>
<svg width="24px" height="24px" viewBox="0 0 24 24" version="1.1" xmlns="http://www.w3.org/2000/svg" xmlns:xlink="http://www.w3.org/1999/xlink">
    <title>2-menu-PC/爬树上山单维护</title>
    <g id="2-menu-PC/爬树上山单维护" stroke="none" stroke-width="1" fill="none" fill-rule="evenodd">
        <rect id="矩形" fill-opacity="0" fill="#FFFFFF" x="0" y="0" width="24" height="24"></rect>
        <path d="M15.6992858,4.29026332 L15.8121175,4.36558768 C15.8500019,4.39276537 15.8891051,4.42291509 15.9322623,4.45874419 L16.0767311,4.58597699 L16.2625348,4.76353021 L18.7364698,7.23746517 L18.914023,7.42326895 L19.0412558,7.56773774 C19.0591704,7.58931634 19.0756651,7.60988144 19.0910783,7.62978743 L19.1732883,7.74414928 C19.1857295,7.76283642 19.1977662,7.78157325 19.2097367,7.80071416 C19.3174712,7.97298234 19.390037,8.14817175 19.4356692,8.34616353 L19.4621909,8.47920993 L19.4812745,8.6300367 C19.4838653,8.65796258 19.4861689,8.68760909 19.4881964,8.71946613 L19.4971395,8.94105388 L19.5,9.23920925 L19.5,18.7180574 C19.5,19.1638168 19.4535872,19.3254599 19.3664336,19.4884229 C19.2792801,19.6513858 19.1513858,19.7792801 18.9884229,19.8664336 C18.8254599,19.9535872 18.6638168,20 18.2180574,20 L5.7819426,20 C5.33618323,20 5.17454011,19.9535872 5.01157715,19.8664336 C4.84861419,19.7792801 4.7207199,19.6513858 4.63356635,19.4884229 C4.54641281,19.3254599 4.5,19.1638168 4.5,18.7180574 L4.5,5.2819426 C4.5,4.83618323 4.54641281,4.67454011 4.63356635,4.51157715 C4.7207199,4.34861419 4.84861419,4.2207199 5.01157715,4.13356635 C5.17454011,4.04641281 5.33618323,4 5.7819426,4 L14.4209091,4.00070384 L14.6778413,4.00653786 C14.7513773,4.00951136 14.8141115,4.0135438 14.8699633,4.01872555 L15.0207901,4.03780912 L15.1538365,4.06433079 C15.3518283,4.109963 15.5270177,4.18252883 15.6992858,4.29026332 Z M6,18.5 L18,18.5 L17.9974315,8.94361649 L17.9890827,8.77870875 L17.9739883,8.68304481 L17.960172,8.63781764 L17.9223013,8.57214797 L17.8521707,8.48400214 L17.714053,8.33695405 L15.163046,5.78594697 L15.0159979,5.64782934 L14.927852,5.57769865 L14.8621824,5.539828 L14.7889683,5.52017112 L14.7212913,5.51091728 L14.5563835,5.50256846 L14.2607907,5.5 L6,5.5 L6,18.5 Z" id="形状结合" fill="#606266" fill-rule="nonzero"></path>
        <rect id="矩形" fill="#606266" x="8.5" y="9" width="5" height="1.5" rx="0.5"></rect>
        <rect id="矩形备份-10" fill="#606266" x="8.5" y="13" width="7" height="1.5" rx="0.5"></rect>
    </g>
</svg>