<?xml version="1.0" encoding="UTF-8"?>
<svg width="24px" height="24px" viewBox="0 0 24 24" version="1.1" xmlns="http://www.w3.org/2000/svg" xmlns:xlink="http://www.w3.org/1999/xlink">
    <title>2-menu-PC/吃瓜业务</title>
    <g id="2-menu-PC/吃瓜业务" stroke="none" stroke-width="1" fill="none" fill-rule="evenodd">
        <rect id="矩形" fill-opacity="0" fill="#FFFFFF" x="0" y="0" width="24" height="24"></rect>
        <path d="M6,11 L6.5,11 C6.77614237,11 7,11.2238576 7,11.5 L7,16.5 C7,16.7761424 6.77614237,17 6.5,17 L6,17 C5.72385763,17 5.5,16.7761424 5.5,16.5 L5.5,11.5 C5.5,11.2238576 5.72385763,11 6,11 Z" id="矩形" fill="#606266"></path>
        <path d="M11.75,11 L12.25,11 C12.5261424,11 12.75,11.2238576 12.75,11.5 L12.75,16.5 C12.75,16.7761424 12.5261424,17 12.25,17 L11.75,17 C11.4738576,17 11.25,16.7761424 11.25,16.5 L11.25,11.5 C11.25,11.2238576 11.4738576,11 11.75,11 Z" id="矩形备份-8" fill="#606266"></path>
        <rect id="矩形备份-9" fill="#606266" x="17" y="11" width="1.5" height="6" rx="0.5"></rect>
        <path d="M11.4265377,3.40142364 C11.7326,3.18717999 12.1287082,3.16337514 12.4547807,3.33000909 L12.5734623,3.40142364 L19.4010973,8.18076808 C19.6684239,8.36789675 19.8276349,8.6736862 19.8276349,9 C19.8276349,9.51283584 19.4415947,9.93550716 18.944256,9.99327227 L18.8276349,10 L5.17236509,10 C4.84605129,10 4.54026184,9.84078902 4.35313317,9.57346234 C4.06078131,9.15581684 4.13205016,8.59239804 4.50060812,8.25908496 L4.59890274,8.18076808 L11.4265377,3.40142364 Z M12,4.831 L6.759,8.499 L17.24,8.499 L12,4.831 Z" id="路径-4" fill="#606266" fill-rule="nonzero"></path>
        <rect id="矩形备份-5" fill="#606266" x="4" y="18" width="16" height="1.5" rx="0.5"></rect>
    </g>
</svg>