<?xml version="1.0" encoding="UTF-8"?>
<svg width="24px" height="24px" viewBox="0 0 24 24" version="1.1" xmlns="http://www.w3.org/2000/svg" xmlns:xlink="http://www.w3.org/1999/xlink">
    <title>2-menu-PC/钓鱼放弃维护</title>
    <g id="2-menu-PC/钓鱼放弃维护" stroke="none" stroke-width="1" fill="none" fill-rule="evenodd">
        <rect id="矩形" fill-opacity="0" fill="#FFFFFF" x="0" y="0" width="24" height="24"></rect>
        <path d="M18.9333333,4 C19.5224371,4 20,4.44771525 20,5 L20,15 C20,15.5522847 19.5224371,16 18.9333333,16 L5.06666667,16 C4.47756293,16 4,15.5522847 4,15 L4,5 C4,4.44771525 4.47756293,4 5.06666667,4 L18.9333333,4 Z M18.5,5.5 L5.5,5.5 L5.5,14.5 L18.5,14.5 L18.5,5.5 Z" id="矩形" fill="#606266" fill-rule="nonzero"></path>
        <rect id="矩形备份-5" fill="#606266" x="3" y="18" width="18" height="1.5" rx="0.5"></rect>
        <path d="M13.3535534,7.29289322 L15.5303301,9.46966991 L15.5303301,9.46966991 C15.7965966,9.73593648 15.8208027,10.1526002 15.6029482,10.4462117 L15.5303301,10.5303301 L13.3535534,12.7071068 C13.1582912,12.9023689 12.8417088,12.9023689 12.6464466,12.7071068 L12.2928932,12.3535534 C12.0976728,12.1582729 12.0976594,11.8417136 12.2928632,11.6464166 L13.939,10 L13.939,10 L12.2928632,8.35358343 C12.0976594,8.15828639 12.0976728,7.84172706 12.2928932,7.64644661 L12.6464466,7.29289322 C12.8417088,7.09763107 13.1582912,7.09763107 13.3535534,7.29289322 Z" id="路径-8" fill="#606266" fill-rule="nonzero"></path>
        <path d="M14.5,9.25 L14.5,10.75 L8.5,10.75 C8.22385763,10.75 8,10.5261424 8,10.25 L8,9.75 C8,9.47385763 8.22385763,9.25 8.5,9.25 L14.5,9.25 L14.5,9.25 Z" id="路径-10" fill="#606266" fill-rule="nonzero"></path>
    </g>
</svg>