<?xml version="1.0" encoding="UTF-8"?>
<svg width="24px" height="24px" viewBox="0 0 24 24" version="1.1" xmlns="http://www.w3.org/2000/svg" xmlns:xlink="http://www.w3.org/1999/xlink">
    <title>2-menu-PC/个人信息</title>
    <g id="2-menu-PC/个人信息" stroke="none" stroke-width="1" fill="none" fill-rule="evenodd">
        <rect id="矩形" fill-opacity="0" fill="#FFFFFF" x="0" y="0" width="24" height="24"></rect>
        <g id="编组-6" transform="translate(4.000000, 4.000000)" fill="#606266" fill-rule="nonzero">
            <path d="M5.84312394,8.48410852 L1.99753562,10.2769328 C1.89258488,10.3258632 1.814202,10.4160917 1.77972025,10.5242554 L1.764438,10.5911189 L1.23812348,14.3015077 C1.23542309,14.3205448 1.23406788,14.3397477 1.23406788,14.3589744 C1.23406788,14.5603773 1.37958519,14.7278838 1.57148209,14.762621 L1.64542384,14.7692308 L14.3543694,14.7692308 L14.4119901,14.765186 C14.6119419,14.7369745 14.757858,14.5698135 14.765465,14.3754506 L14.7616698,14.3015077 L14.2364864,10.5990932 C14.2201294,10.4837802 14.1556616,10.3819972 14.0609066,10.3175788 L14.0005618,10.2836022 L10.1119033,8.50789117 C10.5319591,8.28773226 10.9130711,8.00394871 11.2422816,7.66942928 L14.5146891,9.16472899 C15.024242,9.3976208 15.3798738,9.87319079 15.4583875,10.4266933 L15.9835708,14.1291078 C16.1108629,15.0264858 15.4846352,15.8568691 14.5848521,15.983821 C14.5084996,15.9945937 14.4314822,16 14.3543694,16 L1.64542384,16 C0.736681348,16 0,15.2652878 0,14.3589744 C0,14.2820677 0.00542082616,14.2052562 0.0162223951,14.1291078 L0.542536913,10.4187189 C0.620431148,9.86958358 0.971163845,9.39684033 1.4749274,9.16197465 L4.73201155,7.64330929 C5.05534967,7.97717497 5.42991505,8.26161362 5.84312394,8.48410852 Z" id="形状结合"></path>
            <path d="M8.61857599,10.5064103 L8.61857599,13.2884615 C8.61857599,13.4265327 8.50664717,13.5384615 8.36857599,13.5384615 L7.63121726,13.5384615 C7.49314607,13.5384615 7.38121726,13.4265327 7.38121726,13.2884615 L7.38121726,10.5064103 C7.38121726,10.3683391 7.49314607,10.2564103 7.63121726,10.2564103 L8.36857599,10.2564103 C8.50664717,10.2564103 8.61857599,10.3683391 8.61857599,10.5064103 Z" id="路径"></path>
            <path d="M7.99989662,0 C10.5056026,0 12.5368786,2.02045857 12.5368786,4.51282051 C12.5368786,7.00518246 10.5056026,9.02564103 7.99989662,9.02564103 C5.49419065,9.02564103 3.46291461,7.00518246 3.46291461,4.51282051 C3.46291461,2.02045857 5.49419065,0 7.99989662,0 Z M7.99989662,1.23076923 C6.1750129,1.23076923 4.69698249,2.70092845 4.69698249,4.51282051 C4.69698249,6.32471257 6.1750129,7.79487179 7.99989662,7.79487179 C9.82478034,7.79487179 11.3028108,6.32471257 11.3028108,4.51282051 C11.3028108,2.70092845 9.82478034,1.23076923 7.99989662,1.23076923 Z" id="椭圆形"></path>
        </g>
    </g>
</svg>