<?xml version="1.0" encoding="UTF-8"?>
<svg width="24px" height="24px" viewBox="0 0 24 24" version="1.1" xmlns="http://www.w3.org/2000/svg" xmlns:xlink="http://www.w3.org/1999/xlink">
    <title>2-menu-PC/产业服务链</title>
    <g id="2-menu-PC/产业服务链" stroke="none" stroke-width="1" fill="none" fill-rule="evenodd">
        <rect id="矩形" fill-opacity="0" fill="#FFFFFF" x="0" y="0" width="24" height="24"></rect>
        <g id="编组" transform="translate(3.000000, 3.500000)" fill="#606266" fill-rule="nonzero">
            <path d="M4,9 C6.209139,9 8,10.790861 8,13 C8,15.209139 6.209139,17 4,17 C1.790861,17 0,15.209139 0,13 C0,10.790861 1.790861,9 4,9 Z M4,10.5 C2.61928813,10.5 1.5,11.6192881 1.5,13 C1.5,14.3807119 2.61928813,15.5 4,15.5 C5.38071187,15.5 6.5,14.3807119 6.5,13 C6.5,11.6192881 5.38071187,10.5 4,10.5 Z" id="矩形备份-2"></path>
            <path d="M9,0 C11.209139,0 13,1.790861 13,4 C13,6.209139 11.209139,8 9,8 C6.790861,8 5,6.209139 5,4 C5,1.790861 6.790861,0 9,0 Z M9,1.5 C7.61928813,1.5 6.5,2.61928813 6.5,4 C6.5,5.38071187 7.61928813,6.5 9,6.5 C10.3807119,6.5 11.5,5.38071187 11.5,4 C11.5,2.61928813 10.3807119,1.5 9,1.5 Z" id="矩形备份"></path>
            <path d="M14,9 C16.209139,9 18,10.790861 18,13 C18,15.209139 16.209139,17 14,17 C11.790861,17 10,15.209139 10,13 C10,10.790861 11.790861,9 14,9 Z M14,10.5 C12.6192881,10.5 11.5,11.6192881 11.5,13 C11.5,14.3807119 12.6192881,15.5 14,15.5 C15.3807119,15.5 16.5,14.3807119 16.5,13 C16.5,11.6192881 15.3807119,10.5 14,10.5 Z" id="矩形备份-3"></path>
            <path d="M6.78357837,6.44521442 L8.09481428,7.17367882 L6.19811647,10.5877349 L4.88688056,9.85927048 L6.78357837,6.44521442 Z M11,12.25 L11,13.75 L7,13.75 L7,12.25 L11,12.25 Z M11.1842364,6.38728099 L13.0184831,9.68892508 L11.7072472,10.4173895 L9.87300048,7.11574538 L11.1842364,6.38728099 Z" id="形状"></path>
        </g>
    </g>
</svg>