<?xml version="1.0" encoding="UTF-8"?>
<svg width="11.0000772px" height="12.5831442px" viewBox="0 0 11.0000772 12.5831442" version="1.1" xmlns="http://www.w3.org/2000/svg" xmlns:xlink="http://www.w3.org/1999/xlink">
    <title>16鉴权方式-手机盾</title>
    <g id="平台端" stroke="none" stroke-width="1" fill="none" fill-rule="evenodd">
        <g id="登录不同状态" transform="translate(-55.500000, -289.000000)" fill="#A6A8AC">
            <g id="16鉴权方式-手机盾" transform="translate(55.500000, 289.000000)">
                <path d="M8.11083961,4.00024414 C7.91557552,3.80498387 7.59899299,3.8049869 7.40373264,4.00025092 L4.88939476,6.51463604 L4.88939476,6.51463604 L3.59620799,5.22145115 C3.40094575,5.02618918 3.08436333,5.02618941 2.88910137,5.22145166 C2.88910133,5.22145169 2.8891013,5.22145173 2.88910127,5.22145176 C2.69383929,5.41671413 2.69383958,5.73329665 2.88910191,5.92855866 L4.35907187,7.39852624 C4.65196074,7.69142381 5.12683447,7.69142343 5.41972745,7.39852997 C5.41972898,7.39852844 5.41973051,7.39852691 5.41972745,7.39852079 L8.11084641,4.70735086 C8.30610666,4.51208691 8.30610366,4.1955045 8.11083971,4.00024425 C8.11083968,4.00024421 8.11083964,4.00024418 8.11083961,4.00024414 Z M0,7.00004625 C0,8.41647625 0.743152261,9.72904873 1.95771623,10.4578152 L5.49979258,12.5831442 L9.04227734,10.457757 C10.2568684,9.72903728 11.0000772,8.41647339 11.0000772,7.00005007 L11.0000772,0.75 C11.0000772,0.335786438 10.6642908,3.49325055e-17 10.2500772,0 L0.75,0 C0.335786438,-3.49325055e-17 -5.07265313e-17,0.335786438 0,0.75 L0,7.00004625 L0,7.00004625 Z M1.00002468,1 L10.0000734,1 L10.0000477,7.00004625 C10.0000477,8.06520367 9.44117546,9.05225468 8.52780056,9.60025311 L5.49981546,11.416955 L2.47222662,9.60033131 C1.55885947,9.05228996 1,8.06521893 1,7.00005007 L1.00002468,1 Z" id="secured"></path>
            </g>
        </g>
    </g>
</svg>