<?xml version="1.0" encoding="UTF-8"?>
<svg width="24px" height="24px" viewBox="0 0 24 24" version="1.1" xmlns="http://www.w3.org/2000/svg" xmlns:xlink="http://www.w3.org/1999/xlink">
    <title>2-menu-PC/钓鱼业务</title>
    <g id="2-menu-PC/钓鱼业务" stroke="none" stroke-width="1" fill="none" fill-rule="evenodd">
        <rect id="矩形" fill-opacity="0" fill="#FFFFFF" x="0" y="0" width="24" height="24"></rect>
        <rect id="矩形" x="0" y="0" width="24" height="24"></rect>
        <path d="M12,3 C7.02943725,3 3,7.02943725 3,12 C3,16.9705627 7.02943725,21 12,21 C16.9705627,21 21,16.9705627 21,12 C21,7.02943725 16.9705627,3 12,3 Z M12,4.5 C16.1421356,4.5 19.5,7.85786438 19.5,12 C19.5,16.1421356 16.1421356,19.5 12,19.5 C7.85786438,19.5 4.5,16.1421356 4.5,12 C4.5,7.85786438 7.85786438,4.5 12,4.5 Z" id="形状结合" fill="#606266" fill-rule="nonzero"></path>
        <path d="M14,9 C14.5522847,9 15,9.44771525 15,10 L15,14 C15,14.5522847 14.5522847,15 14,15 L10,15 C9.44771525,15 9,14.5522847 9,14 L9,10 C9,9.44771525 9.44771525,9 10,9 L14,9 Z M13.499,10.499 L10.499,10.499 L10.499,13.499 L13.499,13.499 L13.499,10.499 Z" id="矩形" fill="#606266" fill-rule="nonzero" transform="translate(12.000000, 12.000000) rotate(-45.000000) translate(-12.000000, -12.000000) "></path>
    </g>
</svg>