<?xml version="1.0" encoding="UTF-8"?>
<svg width="24px" height="24px" viewBox="0 0 24 24" version="1.1" xmlns="http://www.w3.org/2000/svg" xmlns:xlink="http://www.w3.org/1999/xlink">
    <title>2-menu-PC/交易确认</title>
    <g id="2-menu-PC/交易确认" stroke="none" stroke-width="1" fill="none" fill-rule="evenodd">
        <rect id="矩形" fill-opacity="0" fill="#FFFFFF" x="0" y="0" width="24" height="24"></rect>
        <rect id="矩形" x="0" y="0" width="24" height="24"></rect>
        <path d="M12.6635235,13.9905688 C12.8467504,14.1737955 12.8467505,14.4708648 12.6635238,14.6540917 C12.6635237,14.6540917 12.6635237,14.6540917 12.6635237,14.6540918 L12.0047162,15.3128995 L12.0047162,15.3128995 C11.0885821,16.2290335 9.60323477,16.2290335 8.68710059,15.3128995 C7.77096647,14.3967654 7.77096653,12.9114178 8.68710042,11.9952842 L9.34590787,11.3364768 C9.5291347,11.15325 9.82620404,11.15325 10.0094309,11.3364768 C10.1926577,11.5197035 10.1926577,11.8167727 10.009431,11.9999995 C10.009431,11.9999995 10.009431,11.9999996 10.0094309,11.9999996 L9.35062344,12.658807 L9.35062344,12.658807 C8.80094283,13.2084878 8.80094306,14.0996959 9.35062355,14.6493758 C9.90030427,15.1990566 10.7915123,15.1990566 11.3411929,14.6493767 L12.0000004,13.990569 C12.1832272,13.8073421 12.4802966,13.807342 12.6635235,13.9905688 Z M13.9905696,11.9999997 L14.6493766,11.3411926 L14.6493766,11.3411926 C15.1990574,10.791512 15.1990574,9.90030399 14.6493766,9.35062354 C14.0996957,8.80094304 13.208488,8.80094304 12.6588076,9.35062354 L12.0000001,10.0094307 C11.8167733,10.1926575 11.5197039,10.1926575 11.3364772,10.0094306 C11.1532504,9.82620382 11.1532504,9.52913451 11.3364772,9.34590775 C11.3364772,9.34590774 11.3364773,9.34590773 11.3364773,9.34590772 L11.9952847,8.68710053 L11.9952847,8.68710053 C12.9114188,7.77096649 14.3967653,7.77096649 15.3128994,8.68710053 C16.2290335,9.60323468 16.2290335,11.0885818 15.3128994,12.0047158 L14.6540928,12.6635229 C14.4708661,12.8467498 14.1737967,12.8467499 13.9905698,12.6635231 C13.9905697,12.6635231 13.9905697,12.663523 13.9905697,12.663523 C13.8073428,12.4802961 13.8073427,12.1832266 13.9905696,11.9999997 Z M10.6730959,13.327065 C10.8563228,13.5102919 11.1533923,13.5102919 11.3366192,13.327065 L13.327188,11.3364961 C13.5104148,11.1532693 13.5104148,10.8561999 13.327188,10.6729731 C13.1439612,10.4897463 12.8468919,10.4897463 12.6636651,10.672973 C12.6636651,10.672973 12.6636651,10.672973 12.6636651,10.672973 L10.6730959,12.6635418 C10.4898691,12.8467687 10.489869,13.1438381 10.6730959,13.327065 C10.6730959,13.327065 10.6730959,13.327065 10.6730959,13.327065 Z" id="link" fill="#606266"></path>
        <path d="M15.6992858,4.29026332 L15.8121175,4.36558768 C15.8500019,4.39276537 15.8891051,4.42291509 15.9322623,4.45874419 L16.0767311,4.58597699 L16.2625348,4.76353021 L18.7364698,7.23746517 L18.914023,7.42326895 L19.0412558,7.56773774 C19.0591704,7.58931634 19.0756651,7.60988144 19.0910783,7.62978743 L19.1732883,7.74414928 C19.1857295,7.76283642 19.1977662,7.78157325 19.2097367,7.80071416 C19.3174712,7.97298234 19.390037,8.14817175 19.4356692,8.34616353 L19.4621909,8.47920993 L19.4812745,8.6300367 C19.4838653,8.65796258 19.4861689,8.68760909 19.4881964,8.71946613 L19.4971395,8.94105388 L19.5,9.23920925 L19.5,18.7180574 C19.5,19.1638168 19.4535872,19.3254599 19.3664336,19.4884229 C19.2792801,19.6513858 19.1513858,19.7792801 18.9884229,19.8664336 C18.8254599,19.9535872 18.6638168,20 18.2180574,20 L5.7819426,20 C5.33618323,20 5.17454011,19.9535872 5.01157715,19.8664336 C4.84861419,19.7792801 4.7207199,19.6513858 4.63356635,19.4884229 C4.54641281,19.3254599 4.5,19.1638168 4.5,18.7180574 L4.5,5.2819426 C4.5,4.83618323 4.54641281,4.67454011 4.63356635,4.51157715 C4.7207199,4.34861419 4.84861419,4.2207199 5.01157715,4.13356635 C5.17454011,4.04641281 5.33618323,4 5.7819426,4 L14.4209091,4.00070384 L14.6778413,4.00653786 C14.7513773,4.00951136 14.8141115,4.0135438 14.8699633,4.01872555 L15.0207901,4.03780912 L15.1538365,4.06433079 C15.3518283,4.109963 15.5270177,4.18252883 15.6992858,4.29026332 Z M6,18.5 L18,18.5 L17.9974315,8.94361649 L17.9890827,8.77870875 L17.9739883,8.68304481 L17.960172,8.63781764 L17.9223013,8.57214797 L17.8521707,8.48400214 L17.714053,8.33695405 L15.163046,5.78594697 L15.0159979,5.64782934 L14.927852,5.57769865 L14.8621824,5.539828 L14.7889683,5.52017112 L14.7212913,5.51091728 L14.5563835,5.50256846 L14.2607907,5.5 L6,5.5 L6,18.5 Z" id="形状结合备份" fill="#606266" fill-rule="nonzero"></path>
    </g>
</svg>