<?xml version="1.0" encoding="UTF-8"?>
<svg width="24px" height="24px" viewBox="0 0 24 24" version="1.1" xmlns="http://www.w3.org/2000/svg" xmlns:xlink="http://www.w3.org/1999/xlink">
    <title>2-menu-PC/注销</title>
    <g id="2-menu-PC/注销" stroke="none" stroke-width="1" fill="none" fill-rule="evenodd">
        <rect id="矩形" fill-opacity="0" fill="#FFFFFF" x="0" y="0" width="24" height="24"></rect>
        <g id="开关_power" transform="translate(4.000000, 4.000000)" stroke="#606266" stroke-linecap="round" stroke-linejoin="round" stroke-width="1.5">
            <g id="编组">
                <path d="M4,1 C3.72235789,1.16136571 3.45524211,1.33901286 3.2,1.53164714 C2.76315789,1.8613 2.36101053,2.23488571 2,2.6458 C0.755271579,4.0627 0,5.9239 0,7.96235714 C0,12.4014143 3.58172632,16 8,16 C12.4182737,16 16,12.4014143 16,7.96235714 C16,5.9239 15.2447158,4.0627 14,2.6458 C13.6389895,2.23488571 13.2368421,1.8613 12.8,1.53164714 C12.5447579,1.33901286 12.2776421,1.16136571 12,1" id="路径"></path>
                <line x1="8" y1="0" x2="8" y2="8" id="路径"></line>
            </g>
        </g>
    </g>
</svg>