<?xml version="1.0" encoding="UTF-8"?>
<svg width="24px" height="24px" viewBox="0 0 24 24" version="1.1" xmlns="http://www.w3.org/2000/svg" xmlns:xlink="http://www.w3.org/1999/xlink">
    <title>2-menu-PC/交易爱好配对</title>
    <g id="2-menu-PC/交易爱好配对" stroke="none" stroke-width="1" fill="none" fill-rule="evenodd">
        <rect id="矩形" fill-opacity="0" fill="#FFFFFF" x="0" y="0" width="24" height="24"></rect>
        <path d="M12.8588933,4 C14.8727908,4 15.9527593,4.27847683 16.9305371,4.80139811 C17.9083149,5.32431939 18.6756806,6.09168511 19.1986019,7.06946289 C19.7215232,8.04724067 20,9.12720916 20,11.1411067 L20,12.8588933 C20,14.8727908 19.7215232,15.9527593 19.1986019,16.9305371 C18.6756806,17.9083149 17.9083149,18.6756806 16.9305371,19.1986019 C15.9527593,19.7215232 14.8727908,20 12.8588933,20 L11.1411067,20 C9.12720916,20 8.04724067,19.7215232 7.06946289,19.1986019 C6.09168511,18.6756806 5.32431939,17.9083149 4.80139811,16.9305371 C4.27847683,15.9527593 4,14.8727908 4,12.8588933 L4,11.1411067 C4,9.12720916 4.27847683,8.04724067 4.80139811,7.06946289 C5.32431939,6.09168511 6.09168511,5.32431939 7.06946289,4.80139811 C8.04724067,4.27847683 9.12720916,4 11.1411067,4 L12.8588933,4 Z M12.8588933,5.5 L11.1411067,5.5 C9.48189077,5.5 8.59704028,5.68548133 7.77686118,6.12411791 C7.06048611,6.50723949 6.50723949,7.06048611 6.12411791,7.77686118 C5.71289611,8.54577908 5.52417405,9.37153708 5.50219013,10.838905 L5.5,11.1411067 L5.5,12.8588933 C5.5,14.5181092 5.68548133,15.4029597 6.12411791,16.2231388 C6.50723949,16.9395139 7.06048611,17.4927605 7.77686118,17.8758821 C8.54577908,18.2871039 9.37153708,18.4758259 10.838905,18.4978099 L11.1411067,18.5 L12.8588933,18.5 C14.5181092,18.5 15.4029597,18.3145187 16.2231388,17.8758821 C16.9395139,17.4927605 17.4927605,16.9395139 17.8758821,16.2231388 C18.2871039,15.4542209 18.4758259,14.6284629 18.4978099,13.161095 L18.5,12.8588933 L18.5,11.1411067 C18.5,9.48189077 18.3145187,8.59704028 17.8758821,7.77686118 C17.4927605,7.06048611 16.9395139,6.50723949 16.2231388,6.12411791 C15.4542209,5.71289611 14.6284629,5.52417405 13.161095,5.50219013 L12.8588933,5.5 Z" id="矩形" fill="#606266" fill-rule="nonzero"></path>
        <path d="M11.4586541,7.86132495 L11.8746792,8.13867505 C12.1044994,8.29176756 12.1665863,8.60220224 12.0134101,8.83196658 C12.0133915,8.83199449 12.0133729,8.83202239 12.0132706,8.83199447 L11.401,9.75 L11.401,9.75 L14.5,9.75 C14.7761424,9.75 15,9.97385763 15,10.25 L15,10.75 C15,11.0261424 14.7761424,11.25 14.5,11.25 L10,11.25 L10,11.25 C9.43621502,11.25 9.08655588,10.6586231 9.32439212,10.1735166 L9.37596228,10.0839749 L10.7652788,8 C10.9184551,7.77023566 11.2288897,7.70814872 11.4586541,7.86132495 Z" id="路径-4" fill="#606266" fill-rule="nonzero"></path>
        <path d="M14,12.75 C14.5939419,12.75 14.9388,13.3988663 14.6443325,13.8846525 L14.5856516,13.9685213 L12.8979991,16.0780869 C12.7254944,16.2937178 12.4108482,16.3286785 12.1952172,16.1561738 L11.8047828,15.8438262 C11.5892694,15.6712536 11.5542765,15.3566803 11.7265972,15.1409653 L12.439,14.25 L12.439,14.25 L9.5,14.25 C9.22385763,14.25 9,14.0261424 9,13.75 L9,13.25 C9,12.9738576 9.22385763,12.75 9.5,12.75 L14,12.75 L14,12.75 Z" id="路径-7" fill="#606266" fill-rule="nonzero"></path>
    </g>
</svg>