<?xml version="1.0" encoding="UTF-8"?>
<svg width="24px" height="24px" viewBox="0 0 24 24" version="1.1" xmlns="http://www.w3.org/2000/svg" xmlns:xlink="http://www.w3.org/1999/xlink">
    <title>2-menu-PC/数据查询</title>
    <g id="2-menu-PC/数据查询" stroke="none" stroke-width="1" fill="none" fill-rule="evenodd">
        <rect id="矩形" fill-opacity="0" fill="#FFFFFF" x="0" y="0" width="24" height="24"></rect>
        <rect id="矩形" x="0" y="0" width="24" height="24"></rect>
        <path d="M18.9333333,4 C19.5224371,4 20,4.44771525 20,5 L20,15 C20,15.5522847 19.5224371,16 18.9333333,16 L5.06666667,16 C4.47756293,16 4,15.5522847 4,15 L4,5 C4,4.44771525 4.47756293,4 5.06666667,4 L18.9333333,4 Z M18.5,5.5 L5.5,5.5 L5.5,14.5 L18.5,14.5 L18.5,5.5 Z" id="矩形" fill="#606266" fill-rule="nonzero"></path>
        <path d="M8,8 L12,8 C12.2761424,8 12.5,8.22385763 12.5,8.5 L12.5,9 C12.5,9.27614237 12.2761424,9.5 12,9.5 L8,9.5 C7.72385763,9.5 7.5,9.27614237 7.5,9 L7.5,8.5 C7.5,8.22385763 7.72385763,8 8,8 Z" id="矩形" fill="#606266"></path>
        <rect id="矩形备份-10" fill="#606266" x="7.5" y="11" width="7" height="1.5" rx="0.5"></rect>
        <rect id="矩形备份-5" fill="#606266" x="3" y="18" width="18" height="1.5" rx="0.5"></rect>
    </g>
</svg>