<?xml version="1.0" encoding="UTF-8"?>
<svg width="24px" height="24px" viewBox="0 0 24 24" version="1.1" xmlns="http://www.w3.org/2000/svg" xmlns:xlink="http://www.w3.org/1999/xlink">
    <title>2-menu-PC/用户管理</title>
    <g id="2-menu-PC/用户管理" stroke="none" stroke-width="1" fill="none" fill-rule="evenodd">
        <rect id="矩形" fill-opacity="0" fill="#FFFFFF" x="0" y="0" width="24" height="24"></rect>
        <path d="M15.3939463,11.4549486 L18.5243161,12.7945214 C18.7853578,12.9063319 18.9847154,13.1229057 19.0760214,13.3879 L19.108402,13.5042692 L20.2408899,18.7905205 C20.25564,18.8593711 20.2630769,18.9295871 20.2630769,19 C20.2630769,19.5128358 19.8770367,19.9355072 19.379698,19.9932723 L19.2630769,20 L4.73692312,20 C4.66651021,20 4.59629423,19.9925631 4.52744358,19.977813 C4.02598601,19.8703844 3.69356001,19.4043683 3.74125881,18.9059634 L3.75911009,18.7905205 L4.89159804,13.5042692 C4.95108594,13.2265903 5.12524922,12.989283 5.36772063,12.84869 L5.4756839,12.7945214 L8.60605374,11.4549486 C8.98237067,11.8868089 9.4397649,12.2461706 9.95451657,12.5093137 L6.304,14.071 L5.354,18.5 L18.645,18.5 L17.695,14.071 L14.0454834,12.5093137 C14.5602351,12.2461706 15.0176293,11.8868089 15.3939463,11.4549486 Z" id="形状结合" fill="#606266" fill-rule="nonzero"></path>
        <path d="M12,4 C14.4852814,4 16.5,6.01471863 16.5,8.5 C16.5,10.9852814 14.4852814,13 12,13 C9.51471863,13 7.5,10.9852814 7.5,8.5 C7.5,6.01471863 9.51471863,4 12,4 Z M12,5.5 C10.3431458,5.5 9,6.84314575 9,8.5 C9,10.1568542 10.3431458,11.5 12,11.5 C13.6568542,11.5 15,10.1568542 15,8.5 C15,6.84314575 13.6568542,5.5 12,5.5 Z" id="路径" fill="#606266" fill-rule="nonzero"></path>
    </g>
</svg>