<?xml version="1.0" encoding="UTF-8"?>
<svg width="24px" height="24px" viewBox="0 0 24 24" version="1.1" xmlns="http://www.w3.org/2000/svg" xmlns:xlink="http://www.w3.org/1999/xlink">
    <title>2-menu-PC/做市放弃</title>
    <g id="2-menu-PC/做市放弃" stroke="none" stroke-width="1" fill="none" fill-rule="evenodd">
        <rect id="矩形" fill-opacity="0" fill="#FFFFFF" x="0" y="0" width="24" height="24"></rect>
        <path d="M18,4 C19.1045695,4 20,4.95512587 20,6.13333333 L20,17.8666667 C20,19.0448741 19.1045695,20 18,20 L6,20 C4.8954305,20 4,19.0448741 4,17.8666667 L4,6.13333333 C4,4.95512587 4.8954305,4 6,4 L18,4 Z M18,5.5 L6,5.5 C5.75454011,5.5 5.55039163,5.69161476 5.50805567,5.9443014 L5.5,6.04166667 L5.5,17.9583333 C5.5,18.2242482 5.67687516,18.4454091 5.91012437,18.491273 L6,18.5 L18,18.5 C18.2454599,18.5 18.4496084,18.3083852 18.4919443,18.0556986 L18.5,17.9583333 L18.5,6.04166667 C18.5,5.77575179 18.3231248,5.55459093 18.0898756,5.50872698 L18,5.5 Z" id="矩形" fill="#606266" fill-rule="nonzero"></path>
        <path d="M14.4,9.55 C14.6485281,9.21862915 15.1186292,9.15147186 15.45,9.4 C15.7512462,9.62593467 15.8341341,10.0349874 15.6599922,10.3564572 L15.6,10.45 L12.6,14.45 C12.3489734,14.7847021 11.8795555,14.8444678 11.5544766,14.6035186 L11.4696699,14.5303301 L10.095,13.156 L8.1103001,15.9359286 C7.89143034,16.2423463 7.48441526,16.3347221 7.15898362,16.1681012 L7.06407135,16.1103001 C6.75765368,15.8914303 6.66527789,15.4844153 6.83189878,15.1589836 L6.8896999,15.0640714 L9.3896999,11.5640714 C9.63835605,11.2159527 10.1206188,11.1508441 10.451096,11.4006416 L10.5303301,11.4696699 L11.919,12.858 L14.4,9.55 Z" id="路径-16" fill="#606266" fill-rule="nonzero"></path>
        <path d="M16,8.25 C16.3796958,8.25 16.693491,8.53215388 16.7431534,8.89822944 L16.75,9 L16.75,12.25 C16.75,12.5261424 16.5261424,12.75 16.25,12.75 L15.75,12.75 C15.4738576,12.75 15.25,12.5261424 15.25,12.25 L15.25,9.75 L15.25,9.75 L12.75,9.75 C12.4738576,9.75 12.25,9.52614237 12.25,9.25 L12.25,8.75 C12.25,8.47385763 12.4738576,8.25 12.75,8.25 L16,8.25 L16,8.25 Z" id="路径-17" fill="#606266" fill-rule="nonzero"></path>
    </g>
</svg>